<svg xmlns="http://www.w3.org/2000/svg" viewBox="0 0 101.93 12.37"><defs><style>.cls-1{fill:#fff;}</style></defs><title>Asset 4</title><g id="Layer_2" data-name="Layer 2"><g id="Layer_1-2" data-name="Layer 1"><path class="cls-1" d="M5.37,9.36C5.37,7.67.46,7.9.46,4.53.46,2.77,2,1.38,4.21,1.38A4.22,4.22,0,0,1,7.45,2.66L6,4.38a2.49,2.49,0,0,0-2-1c-.76,0-1.19.43-1.19,1,0,1.72,4.9,1.46,4.9,4.85,0,1.6-1.32,3.15-4,3.15A5.16,5.16,0,0,1,0,11L1.32,9.11A3.88,3.88,0,0,0,4,10.39C4.93,10.39,5.37,9.92,5.37,9.36Z"/><path class="cls-1" d="M18.68,3.41c1.69,0,2.65.9,2.65,2.86V12.2H19V6.68c0-1-.52-1.34-1.11-1.34a1.6,1.6,0,0,0-1.43,1V12.2h-2.3V6.85c0-1-.42-1.51-1.22-1.51a1.53,1.53,0,0,0-1.32,1V12.2H9.35V3.61h1.89l.38.8h.06a2.87,2.87,0,0,1,2.27-1,2.09,2.09,0,0,1,2.14,1.15h.06A3.13,3.13,0,0,1,18.68,3.41Z"/><path class="cls-1" d="M29.54,6.3V9.74c0,.48.18.7.59.7h.24V12a2.07,2.07,0,0,1-1.14.29,1.6,1.6,0,0,1-1.55-.93h-.06a2.56,2.56,0,0,1-2.19,1A2.35,2.35,0,0,1,22.89,10c0-2,1.78-2.89,4.49-2.75V6.54a1.1,1.1,0,0,0-1.24-1.25,1.51,1.51,0,0,0-1.47,1L23,5.07a3.55,3.55,0,0,1,3.09-1.62C28.32,3.45,29.54,4.21,29.54,6.3ZM27.38,8.76c-1.51-.1-2.25.25-2.25,1a.82.82,0,0,0,.92.84A1.67,1.67,0,0,0,27.38,10Z"/><path class="cls-1" d="M37,5.77a5.58,5.58,0,0,0-1-.08,3.35,3.35,0,0,0-2,.68V12.2H31.68V3.61h1.79L34,4.87H34a2.28,2.28,0,0,1,2.22-1.45A3.33,3.33,0,0,1,37,3.5Z"/><path class="cls-1" d="M38.49,9.45V5.36H37.4V3.93l1.11-.46.79-2h1.46V3.61H42.9V5.36H40.76V9.51a.81.81,0,0,0,.9.9A2.11,2.11,0,0,0,42.83,10l.59,1.71a4,4,0,0,1-2.39.54C39.56,12.28,38.49,11.53,38.49,9.45Z"/><path class="cls-1" d="M48.88,12.2V1.54h6.31V3.45h-4V6.28h3.44V8.2H51.19v4Z"/><path class="cls-1" d="M62.2,6.3V9.74c0,.48.19.7.6.7H63V12a2.07,2.07,0,0,1-1.14.29,1.6,1.6,0,0,1-1.55-.93h-.06a2.56,2.56,0,0,1-2.19,1A2.34,2.34,0,0,1,55.56,10c0-2,1.78-2.89,4.48-2.75V6.54a1.09,1.09,0,0,0-1.23-1.25,1.51,1.51,0,0,0-1.47,1l-1.63-1.2A3.54,3.54,0,0,1,58.8,3.45C61,3.45,62.2,4.21,62.2,6.3ZM60,8.76c-1.5-.1-2.25.25-2.25,1a.83.83,0,0,0,.93.84A1.65,1.65,0,0,0,60,10Z"/><path class="cls-1" d="M64,6.12c0-1.4,1.2-2.67,3.2-2.67a3.89,3.89,0,0,1,3.1,1.21L68.84,6.1a2.31,2.31,0,0,0-1.69-.81c-.52,0-.86.28-.86.67,0,1.3,4,.84,4,3.72,0,1.14-.9,2.67-3.39,2.67a4.77,4.77,0,0,1-3.5-1.29l1.37-1.58a3.14,3.14,0,0,0,2.25,1.06c.72,0,1-.33,1-.73C68.06,8.57,64,9,64,6.12Z"/><path class="cls-1" d="M79.15,6.4v5.8h-2.3V6.86c0-.91-.41-1.37-1.19-1.37a1.84,1.84,0,0,0-1.47,1V12.2h-2.3V.67h2.3v3.8h.06a3.18,3.18,0,0,1,2.27-.93C78.19,3.54,79.15,4.47,79.15,6.4Z"/><path class="cls-1" d="M82.35,0a1.33,1.33,0,0,1,1.36,1.37,1.31,1.31,0,0,1-1.36,1.29,1.29,1.29,0,0,1-1.3-1.29A1.31,1.31,0,0,1,82.35,0ZM81.24,3.61h2.3V12.2h-2.3Z"/><path class="cls-1" d="M85.21,7.94c0-2.65,1.11-4.49,4-4.49s3.89,1.77,3.89,4.43-1.12,4.49-4,4.49S85.21,10.6,85.21,7.94Zm4,2.63c1.17,0,1.53-.85,1.53-2.6s-.44-2.72-1.62-2.72-1.51.85-1.51,2.6S88,10.57,89.17,10.57Z"/><path class="cls-1" d="M101.93,12.2h-2.3V6.74c0-.88-.41-1.4-1.19-1.4a1.59,1.59,0,0,0-1.47,1V12.2h-2.3V3.61h1.8l.45.8H97a3.1,3.1,0,0,1,2.32-1c1.67,0,2.63.93,2.63,2.86Z"/></g></g></svg>