<svg id="Layer_1" data-name="Layer 1" xmlns="http://www.w3.org/2000/svg" viewBox="0 0 190 23.06"><defs><style>.cls-1{fill:#004779;}</style></defs><title>smart-fashion-logo-dark</title><path class="cls-1" d="M21,58.73c0-3.15-9.16-2.73-9.16-9,0-3.29,2.89-5.87,7-5.87a7.85,7.85,0,0,1,6,2.38l-2.7,3.2a4.62,4.62,0,0,0-3.71-1.84c-1.42,0-2.22.79-2.22,1.79,0,3.2,9.14,2.72,9.14,9,0,3-2.47,5.87-7.52,5.87A9.66,9.66,0,0,1,11,61.85l2.47-3.58a7.22,7.22,0,0,0,5,2.38C20.16,60.65,21,59.78,21,58.73Z" transform="translate(-10.97 -41.29)"/><path class="cls-1" d="M45.79,47.64c3.15,0,4.93,1.67,4.93,5.33V64H46.44V53.73c0-1.87-1-2.49-2.07-2.49a3,3,0,0,0-2.66,1.84V64H37.42v-10c0-1.88-.79-2.81-2.27-2.81a2.85,2.85,0,0,0-2.46,1.9V64H28.41V48h3.51l.71,1.5h.11A5.32,5.32,0,0,1,37,47.64c2.44,0,3.43,1,4,2.15h.11A5.8,5.8,0,0,1,45.79,47.64Z" transform="translate(-10.97 -41.29)"/><path class="cls-1" d="M66,53v6.4c0,.91.34,1.31,1.1,1.31h.46v2.95a4,4,0,0,1-2.13.54,3,3,0,0,1-2.89-1.73h-.12a4.77,4.77,0,0,1-4.08,1.78,4.36,4.36,0,0,1-4.73-4.42c0-3.69,3.31-5.39,8.36-5.13V53.48a2,2,0,0,0-2.3-2.33A2.82,2.82,0,0,0,57,53l-3-2.24a6.62,6.62,0,0,1,5.76-3C63.76,47.72,66,49.14,66,53Zm-4,4.59c-2.81-.2-4.2.45-4.2,1.84A1.54,1.54,0,0,0,59.53,61,3.11,3.11,0,0,0,62,59.89Z" transform="translate(-10.97 -41.29)"/><path class="cls-1" d="M79.86,52A10.44,10.44,0,0,0,78,51.89a6.28,6.28,0,0,0-3.75,1.28V64H70V48h3.35l.88,2.35h.11a4.26,4.26,0,0,1,4.14-2.69,6.38,6.38,0,0,1,1.36.14Z" transform="translate(-10.97 -41.29)"/><path class="cls-1" d="M82.72,58.9V51.27h-2V48.6l2.07-.85L84.22,44H87v4h4v3.26H87V59a1.5,1.5,0,0,0,1.67,1.67A3.77,3.77,0,0,0,90.8,60l1.11,3.21c-.54.39-1.79,1-4.45,1S82.72,62.78,82.72,58.9Z" transform="translate(-10.97 -41.29)"/><path class="cls-1" d="M102.08,64V44.15h11.77v3.57h-7.46V53h6.41v3.57h-6.41V64Z" transform="translate(-10.97 -41.29)"/><path class="cls-1" d="M126.92,53v6.4c0,.91.34,1.31,1.11,1.31h.45v2.95a4,4,0,0,1-2.13.54,3,3,0,0,1-2.89-1.73h-.11a4.8,4.8,0,0,1-4.08,1.78,4.37,4.37,0,0,1-4.74-4.42c0-3.69,3.32-5.39,8.37-5.13V53.48a2,2,0,0,0-2.3-2.33A2.81,2.81,0,0,0,117.85,53l-3-2.24a6.64,6.64,0,0,1,5.76-3C124.65,47.72,126.92,49.14,126.92,53Zm-4,4.59c-2.81-.2-4.2.45-4.2,1.84A1.54,1.54,0,0,0,120.43,61a3.13,3.13,0,0,0,2.47-1.13Z" transform="translate(-10.97 -41.29)"/><path class="cls-1" d="M130.29,52.68c0-2.6,2.24-5,6-5A7.29,7.29,0,0,1,142,50l-2.75,2.7a4.25,4.25,0,0,0-3.15-1.51c-1,0-1.58.51-1.58,1.25,0,2.41,7.54,1.56,7.54,6.92,0,2.13-1.67,5-6.32,5a8.88,8.88,0,0,1-6.53-2.41L131.79,59a5.82,5.82,0,0,0,4.2,2c1.34,0,1.85-.63,1.85-1.36C137.84,57.25,130.29,58,130.29,52.68Z" transform="translate(-10.97 -41.29)"/><path class="cls-1" d="M158.5,53.22V64h-4.28v-10c0-1.7-.76-2.55-2.21-2.55a3.45,3.45,0,0,0-2.75,1.76V64H145V42.53h4.28v7.09h.11a5.91,5.91,0,0,1,4.23-1.73C156.72,47.89,158.5,49.62,158.5,53.22Z" transform="translate(-10.97 -41.29)"/><path class="cls-1" d="M164.48,41.29A2.46,2.46,0,0,1,167,43.84a2.48,2.48,0,1,1-2.52-2.55ZM162.41,48h4.28V64h-4.28Z" transform="translate(-10.97 -41.29)"/><path class="cls-1" d="M169.81,56.09c0-4.94,2.07-8.37,7.37-8.37,5.53,0,7.26,3.29,7.26,8.26s-2.1,8.36-7.4,8.36C171.54,64.34,169.81,61.05,169.81,56.09Zm7.37,4.9c2.19,0,2.87-1.58,2.87-4.84s-.83-5.08-3-5.08c-1.95,0-2.81,1.59-2.81,4.85S175,61,177.18,61Z" transform="translate(-10.97 -41.29)"/><path class="cls-1" d="M201,64h-4.28V53.85c0-1.65-.77-2.61-2.22-2.61a3,3,0,0,0-2.75,1.9V64h-4.28V48h3.35l.85,1.5h.11a5.75,5.75,0,0,1,4.31-1.9c3.12,0,4.91,1.73,4.91,5.33Z" transform="translate(-10.97 -41.29)"/></svg>