<?xml version="1.0" encoding="utf-8"?>
<!-- Generator: Adobe Illustrator 23.0.2, SVG Export Plug-In . SVG Version: 6.00 Build 0)  -->
<svg version="1.1" id="Layer_1" xmlns="http://www.w3.org/2000/svg" xmlns:xlink="http://www.w3.org/1999/xlink" x="0px" y="0px"
	 viewBox="0 0 101.9 12.4" style="enable-background:new 0 0 101.9 12.4;" xml:space="preserve">
<style type="text/css">
	.st0{fill:#FFFFFF;}
</style>
<title>Asset 4</title>
<g>
	<g id="Layer_1-2">
		<path class="st0" d="M5.4,9.4c0-1.7-4.9-1.5-4.9-4.8c0-1.8,1.5-3.2,3.8-3.2c1.2-0.1,2.4,0.4,3.2,1.3L6,4.4c-0.5-0.6-1.2-1-2-1
			c-0.8,0-1.2,0.4-1.2,1c0,1.7,4.9,1.5,4.9,4.8c0,1.6-1.3,3.1-4,3.1C2.3,12.4,1,11.9,0,11l1.3-1.9C2,9.9,3,10.3,4,10.4
			C4.9,10.4,5.4,9.9,5.4,9.4z"/>
		<path class="st0" d="M18.7,3.4c1.7,0,2.6,0.9,2.6,2.9v5.9H19V6.7c0-1-0.5-1.3-1.1-1.3c-0.6,0-1.2,0.4-1.4,1v5.9h-2.3V6.8
			c0-1-0.4-1.5-1.2-1.5c-0.6,0-1.1,0.4-1.3,1v5.9H9.4V3.6h1.9l0.4,0.8h0.1c0.6-0.7,1.4-1,2.3-1c0.9-0.1,1.7,0.3,2.1,1.2h0.1
			C16.8,3.8,17.7,3.4,18.7,3.4z"/>
		<path class="st0" d="M29.5,6.3v3.4c0,0.5,0.2,0.7,0.6,0.7h0.2V12c-0.3,0.2-0.7,0.3-1.1,0.3c-0.7,0-1.3-0.3-1.5-0.9h-0.1
			c-0.5,0.7-1.3,1.1-2.2,1c-1.3,0.1-2.4-0.9-2.5-2.2c0-0.1,0-0.1,0-0.2c0-2,1.8-2.9,4.5-2.8V6.5c0.1-0.6-0.3-1.2-0.9-1.2
			c-0.1,0-0.2,0-0.3,0c-0.7,0-1.2,0.4-1.5,1L23,5.1c0.7-1,1.8-1.7,3.1-1.6C28.3,3.5,29.5,4.2,29.5,6.3z M27.4,8.8
			c-1.5-0.1-2.2,0.2-2.2,1c0,0.5,0.3,0.8,0.8,0.8c0,0,0.1,0,0.1,0c0.5,0,1-0.2,1.3-0.6V8.8z"/>
		<path class="st0" d="M37,5.8c-0.3-0.1-0.7-0.1-1-0.1c-0.7,0-1.4,0.2-2,0.7v5.8h-2.3V3.6h1.8L34,4.9l0,0c0.4-0.9,1.2-1.5,2.2-1.5
			c0.3,0,0.5,0,0.8,0.1V5.8z"/>
		<path class="st0" d="M38.5,9.4V5.4h-1.1V3.9l1.1-0.5l0.8-2h1.5v2.1h2.1v1.8h-2.1v4.2c-0.1,0.4,0.3,0.8,0.7,0.9c0.1,0,0.1,0,0.2,0
			c0.4,0,0.8-0.2,1.2-0.4l0.6,1.7c-0.7,0.4-1.6,0.6-2.4,0.5C39.6,12.3,38.5,11.5,38.5,9.4z"/>
		<path class="st0" d="M48.9,12.2V1.5h6.3v1.9h-4v2.8h3.4v1.9h-3.4v4H48.9z"/>
		<path class="st0" d="M62.2,6.3v3.4c0,0.5,0.2,0.7,0.6,0.7H63V12c-0.3,0.2-0.7,0.3-1.1,0.3c-0.7,0-1.3-0.3-1.5-0.9h-0.1
			c-0.5,0.7-1.3,1.1-2.2,1c-1.3,0.1-2.4-0.9-2.5-2.2c0-0.1,0-0.1,0-0.2c0-2,1.8-2.9,4.5-2.8V6.5c0.1-0.6-0.3-1.2-0.9-1.2
			c-0.1,0-0.2,0-0.3,0c-0.7,0-1.2,0.4-1.5,1l-1.6-1.2c0.7-1.1,1.8-1.7,3.1-1.6C61,3.5,62.2,4.2,62.2,6.3z M60,8.8
			c-1.5-0.1-2.2,0.2-2.2,1c0,0.5,0.4,0.8,0.8,0.8c0,0,0.1,0,0.1,0c0.5,0,1-0.2,1.3-0.6V8.8z"/>
		<path class="st0" d="M64,6.1c0-1.4,1.2-2.7,3.2-2.7c1.2-0.1,2.3,0.4,3.1,1.2l-1.5,1.4c-0.4-0.5-1-0.8-1.7-0.8
			c-0.5,0-0.9,0.3-0.9,0.7c0,1.3,4,0.8,4,3.7c0,1.1-0.9,2.7-3.4,2.7c-1.3,0.1-2.6-0.4-3.5-1.3l1.4-1.6c0.6,0.6,1.4,1,2.2,1.1
			c0.7,0,1-0.3,1-0.7C68.1,8.6,64,9,64,6.1z"/>
		<path class="st0" d="M79.2,6.4v5.8h-2.3V6.9c0-0.9-0.4-1.4-1.2-1.4c-0.6,0.1-1.2,0.4-1.5,1v5.7h-2.3V0.7h2.3v3.8h0.1
			c0.6-0.6,1.4-0.9,2.3-0.9C78.2,3.5,79.2,4.5,79.2,6.4z"/>
		<path class="st0" d="M82.3,0c0.7,0,1.3,0.6,1.4,1.3c0,0,0,0,0,0.1c0,0.7-0.6,1.3-1.3,1.3c0,0,0,0,0,0c-0.7,0-1.3-0.6-1.3-1.3
			c0,0,0,0,0,0C81,0.6,81.6,0,82.3,0C82.3,0,82.3,0,82.3,0z M81.2,3.6h2.3v8.6h-2.3V3.6z"/>
		<path class="st0" d="M85.2,7.9c0-2.7,1.1-4.5,4-4.5s3.9,1.8,3.9,4.4s-1.1,4.5-4,4.5S85.2,10.6,85.2,7.9z M89.2,10.6
			c1.2,0,1.5-0.9,1.5-2.6s-0.4-2.7-1.6-2.7s-1.5,0.8-1.5,2.6S88,10.6,89.2,10.6L89.2,10.6z"/>
		<path class="st0" d="M101.9,12.2h-2.3V6.7c0-0.9-0.4-1.4-1.2-1.4c-0.6,0-1.2,0.4-1.5,1v5.9h-2.3V3.6h1.8l0.4,0.8H97
			c0.6-0.6,1.4-1,2.3-1c1.7,0,2.6,0.9,2.6,2.9L101.9,12.2z"/>
	</g>
</g>
</svg>
